<svg width="166" height="28" viewBox="0 0 166 28" fill="none" xmlns="http://www.w3.org/2000/svg">
<path d="M37.5188 22.7267V4.40351H42.3614V11.2093H49.4289V4.40351H54.2714V22.7267H49.4289V15.6592H42.3614V22.7267H37.5188Z" fill="white"/>
<path d="M57.1385 5.45054C57.1385 4.82232 57.3741 4.2988 57.8453 3.87999C58.3164 3.44372 58.9098 3.22559 59.6252 3.22559C60.3407 3.22559 60.934 3.44372 61.4052 3.87999C61.8764 4.2988 62.1119 4.82232 62.1119 5.45054C62.1119 6.06132 61.8764 6.58484 61.4052 7.0211C60.934 7.45737 60.3407 7.6755 59.6252 7.6755C58.9098 7.6755 58.3164 7.45737 57.8453 7.0211C57.3741 6.58484 57.1385 6.06132 57.1385 5.45054ZM57.4003 22.7267V9.11518H61.8502V22.7267H57.4003Z" fill="white"/>
<path d="M65.8361 20.6588C64.6669 19.3674 64.0823 17.7009 64.0823 15.6592C64.0823 13.6174 64.6669 11.9509 65.8361 10.6596C67.0053 9.36822 68.4275 8.72254 70.1028 8.72254C71.3069 8.72254 72.3452 9.07155 73.2177 9.76958C73.6191 10.0837 73.9332 10.4327 74.1601 10.8166H74.4218V9.11518H78.8717V27.7001H65.9146V24.1664H74.4218V20.6326H74.1601C73.9157 21.0165 73.6016 21.3481 73.2177 21.6273C72.3626 22.273 71.3243 22.5958 70.1028 22.5958C68.4275 22.5958 67.0053 21.9501 65.8361 20.6588ZM69.4484 13.3557C68.9249 13.9141 68.6631 14.6819 68.6631 15.6592C68.6631 16.6364 68.9249 17.4042 69.4484 17.9627C69.9719 18.5211 70.6699 18.8003 71.5425 18.8003C72.415 18.8003 73.113 18.5211 73.6365 17.9627C74.16 17.4042 74.4218 16.6364 74.4218 15.6592C74.4218 14.6819 74.16 13.9141 73.6365 13.3557C73.113 12.7973 72.415 12.5181 71.5425 12.5181C70.6699 12.5181 69.9719 12.7973 69.4484 13.3557Z" fill="white"/>
<path d="M81.4771 22.7267V4.40351H85.927V10.9475H86.1887C86.433 10.5287 86.7472 10.1622 87.1311 9.84811C88.021 9.09773 89.0594 8.72254 90.246 8.72254C91.8515 8.72254 93.0992 9.21116 93.9892 10.1884C94.8966 11.1482 95.3503 12.5355 95.3503 14.3504V22.7267H90.9004V15.0048C90.9004 14.2195 90.691 13.6087 90.2722 13.1725C89.8534 12.7362 89.2775 12.5181 88.5446 12.5181C87.7942 12.5181 87.166 12.7973 86.6599 13.3557C86.1713 13.8967 85.927 14.6209 85.927 15.5283V22.7267H81.4771Z" fill="white"/>
<path d="M105.173 27.7001V9.11518H109.623V10.9475H109.885C110.129 10.5461 110.461 10.1797 110.88 9.84811C111.84 9.09773 112.86 8.72254 113.942 8.72254C115.618 8.72254 117.04 9.38567 118.209 10.7119C119.378 12.0207 119.963 13.7571 119.963 15.9209C119.963 18.0848 119.378 19.8299 118.209 21.1561C117.04 22.4649 115.618 23.1193 113.942 23.1193C112.843 23.1193 111.822 22.7529 110.88 22.0199C110.461 21.6884 110.129 21.3132 109.885 20.8944H109.623V27.7001H105.173ZM110.409 13.408C109.885 14.0014 109.623 14.839 109.623 15.9209C109.623 17.0029 109.885 17.8405 110.409 18.4338C110.932 19.0272 111.63 19.3238 112.503 19.3238C113.375 19.3238 114.073 19.0272 114.597 18.4338C115.12 17.8405 115.382 17.0029 115.382 15.9209C115.382 14.839 115.12 14.0014 114.597 13.408C114.073 12.8147 113.375 12.5181 112.503 12.5181C111.63 12.5181 110.932 12.8147 110.409 13.408Z" fill="white"/>
<path d="M123.275 21.1561C122.106 19.8299 121.521 18.0848 121.521 15.9209C121.521 13.7571 122.106 12.0207 123.275 10.7119C124.444 9.38567 125.866 8.72254 127.542 8.72254C128.624 8.72254 129.644 9.09773 130.604 9.84811C131.006 10.1797 131.337 10.5461 131.599 10.9475H131.861V9.11518H136.311V22.7267H131.861V20.8944H131.599C131.355 21.3132 131.023 21.6884 130.604 22.0199C129.662 22.7529 128.641 23.1193 127.542 23.1193C125.866 23.1193 124.444 22.4649 123.275 21.1561ZM126.887 13.408C126.364 14.0014 126.102 14.839 126.102 15.9209C126.102 17.0029 126.364 17.8405 126.887 18.4338C127.411 19.0272 128.109 19.3238 128.981 19.3238C129.854 19.3238 130.552 19.0272 131.075 18.4338C131.599 17.8405 131.861 17.0029 131.861 15.9209C131.861 14.839 131.599 14.0014 131.075 13.408C130.552 12.8147 129.854 12.5181 128.981 12.5181C128.109 12.5181 127.411 12.8147 126.887 13.408Z" fill="white"/>
<path d="M138.131 18.2768H142.581C142.65 18.5385 142.799 18.7828 143.026 19.0097C143.497 19.4809 144.177 19.7165 145.067 19.7165C146.289 19.7165 146.9 19.4111 146.9 18.8003C146.9 18.5211 146.725 18.303 146.376 18.1459C146.027 17.9714 145.504 17.7969 144.806 17.6224C144.23 17.4828 143.854 17.3955 143.68 17.3606C143.505 17.3257 143.139 17.2297 142.581 17.0727C142.022 16.8982 141.621 16.7498 141.376 16.6277C141.15 16.4881 140.827 16.2961 140.408 16.0518C140.007 15.7901 139.71 15.5283 139.518 15.2665C139.343 14.9873 139.178 14.647 139.021 14.2457C138.864 13.8269 138.785 13.3819 138.785 12.9107C138.785 11.759 139.3 10.773 140.329 9.95281C141.359 9.13263 142.807 8.72254 144.675 8.72254C147.013 8.72254 148.863 9.49037 150.224 11.026C150.765 11.6892 151.14 12.4483 151.35 13.3033H147.031C146.926 13.0241 146.804 12.806 146.664 12.6489C146.263 12.2127 145.687 11.9945 144.936 11.9945C143.889 11.9945 143.366 12.2999 143.366 12.9107C143.366 13.2074 143.54 13.4342 143.889 13.5913C144.238 13.7483 144.771 13.8967 145.486 14.0363C147.284 14.4551 148.496 14.8215 149.125 15.1357C150.695 15.9035 151.48 17.0814 151.48 18.6694C151.48 19.9259 150.922 20.9816 149.805 21.8367C148.706 22.6918 147.126 23.1193 145.067 23.1193C142.537 23.1193 140.609 22.3166 139.282 20.7111C138.689 19.9957 138.305 19.1842 138.131 18.2768Z" fill="white"/>
<path d="M152.65 18.2768H157.1C157.17 18.5385 157.318 18.7828 157.545 19.0097C158.016 19.4809 158.697 19.7165 159.587 19.7165C160.808 19.7165 161.419 19.4111 161.419 18.8003C161.419 18.5211 161.245 18.303 160.896 18.1459C160.547 17.9714 160.023 17.7969 159.325 17.6224C158.749 17.4828 158.374 17.3955 158.199 17.3606C158.025 17.3257 157.658 17.2297 157.1 17.0727C156.542 16.8982 156.14 16.7498 155.896 16.6277C155.669 16.4881 155.346 16.2961 154.927 16.0518C154.526 15.7901 154.229 15.5283 154.037 15.2665C153.863 14.9873 153.697 14.647 153.54 14.2457C153.383 13.8269 153.305 13.3819 153.305 12.9107C153.305 11.759 153.819 10.773 154.849 9.95281C155.879 9.13263 157.327 8.72254 159.194 8.72254C161.533 8.72254 163.382 9.49037 164.743 11.026C165.284 11.6892 165.66 12.4483 165.869 13.3033H161.55C161.445 13.0241 161.323 12.806 161.184 12.6489C160.782 12.2127 160.206 11.9945 159.456 11.9945C158.409 11.9945 157.885 12.2999 157.885 12.9107C157.885 13.2074 158.06 13.4342 158.409 13.5913C158.758 13.7483 159.29 13.8967 160.006 14.0363C161.803 14.4551 163.016 14.8215 163.644 15.1357C165.215 15.9035 166 17.0814 166 18.6694C166 19.9259 165.441 20.9816 164.325 21.8367C163.225 22.6918 161.646 23.1193 159.587 23.1193C157.056 23.1193 155.128 22.3166 153.802 20.7111C153.209 19.9957 152.825 19.1842 152.65 18.2768Z" fill="white"/>
<path fill-rule="evenodd" clip-rule="evenodd" d="M5.2352 6.14877V21.8544H20.9408L5.2352 6.14877ZM0 0.913574V27.0896H26.176V0.913574H0Z" fill="#FF6E30"/>
</svg>
